<?xml version="1.0" encoding="UTF-8"?>
<svg width="502px" height="30px" viewBox="0 0 502 30" version="1.1" xmlns="http://www.w3.org/2000/svg" xmlns:xlink="http://www.w3.org/1999/xlink">
    <!-- Generator: Sketch 52.6 (67491) - http://www.bohemiancoding.com/sketch -->
    <title>Timeline</title>
    <desc>Created with Sketch.</desc>
    <g id="Page-1" stroke="none" stroke-width="1" fill="none" fill-rule="evenodd">
        <g id="3">
            <g id="Timeline">
                <g id="Requested" fill="#7ED321">
                    <path d="M15,30 C6.71572875,30 0,23.2842712 0,15 C0,6.71572875 6.71572875,0 15,0 C23.2842712,0 30,6.71572875 30,15 C30,23.2842712 23.2842712,30 15,30 Z M6.26359303,15.6680213 L12.1135987,22.2054005 C12.4650561,22.5981933 13.0349043,22.5981933 13.3863969,22.2054398 L23.736407,10.639268 C24.0878643,10.2464752 24.0878643,9.60967004 23.736407,9.21691655 L22.463644,7.79456512 C22.1121866,7.40181163 21.5423033,7.40181163 21.1908459,7.79456512 L12.7499978,17.2271705 L8.80915411,12.8233184 C8.45769674,12.4305256 7.88781337,12.4305256 7.53635599,12.8233184 L6.26359303,14.2456698 C5.91213566,14.6384626 5.91213566,15.2752678 6.26359303,15.6680213 Z" id="CheckBullet"></path>
                </g>
                <g id="Diff1" transform="translate(33.000000, 14.000000)" stroke="#D2D2D2" stroke-width="2">
                    <path d="M0,1 L200,1" id="DiffLine1"></path>
                </g>
                <g id="Started" transform="translate(236.000000, 0.000000)">
                    <path d="M15,30 C6.71572875,30 0,23.2842712 0,15 C0,6.71572875 6.71572875,0 15,0 C23.2842712,0 30,6.71572875 30,15 C30,23.2842712 23.2842712,30 15,30 Z M6.26359303,15.6680213 L12.1135987,22.2054005 C12.4650561,22.5981933 13.0349043,22.5981933 13.3863969,22.2054398 L23.736407,10.639268 C24.0878643,10.2464752 24.0878643,9.60967004 23.736407,9.21691655 L22.463644,7.79456512 C22.1121866,7.40181163 21.5423033,7.40181163 21.1908459,7.79456512 L12.7499978,17.2271705 L8.80915411,12.8233184 C8.45769674,12.4305256 7.88781337,12.4305256 7.53635599,12.8233184 L6.26359303,14.2456698 C5.91213566,14.6384626 5.91213566,15.2752678 6.26359303,15.6680213 Z" id="CheckBullet" fill="#7ED321"></path>
                    <g id="LoadingBullet" fill="#D8D8D8">
                        <path d="M15,30 C6.71572875,30 0,23.2842712 0,15 C0,6.71572875 6.71572875,0 15,0 C23.2842712,0 30,6.71572875 30,15 C30,23.2842712 23.2842712,30 15,30 Z M15,27.1428571 C21.7063148,27.1428571 27.1428571,21.7063148 27.1428571,15 C27.1428571,8.29368518 21.7063148,2.85714286 15,2.85714286 C8.29368518,2.85714286 2.85714286,8.29368518 2.85714286,15 C2.85714286,21.7063148 8.29368518,27.1428571 15,27.1428571 Z" id="Outer"></path>
                        <circle id="Inner" cx="15" cy="15" r="7.5"></circle>
                    </g>
                </g>
                <g id="Diff2" transform="translate(269.000000, 14.000000)" stroke="#D2D2D2" stroke-width="2">
                    <path d="M0,1 L200,1" id="DiffLine2"></path>
                </g>
                <g id="Completed" transform="translate(472.000000, 0.000000)">
                    <path d="M15,30 C6.71572875,30 0,23.2842712 0,15 C0,6.71572875 6.71572875,0 15,0 C23.2842712,0 30,6.71572875 30,15 C30,23.2842712 23.2842712,30 15,30 Z M6.26359303,15.6680213 L12.1135987,22.2054005 C12.4650561,22.5981933 13.0349043,22.5981933 13.3863969,22.2054398 L23.736407,10.639268 C24.0878643,10.2464752 24.0878643,9.60967004 23.736407,9.21691655 L22.463644,7.79456512 C22.1121866,7.40181163 21.5423033,7.40181163 21.1908459,7.79456512 L12.7499978,17.2271705 L8.80915411,12.8233184 C8.45769674,12.4305256 7.88781337,12.4305256 7.53635599,12.8233184 L6.26359303,14.2456698 C5.91213566,14.6384626 5.91213566,15.2752678 6.26359303,15.6680213 Z" id="CheckBullet" fill="#7ED321"></path>
                    <g id="LoadingBullet" fill="#D8D8D8">
                        <path d="M15,30 C6.71572875,30 0,23.2842712 0,15 C0,6.71572875 6.71572875,0 15,0 C23.2842712,0 30,6.71572875 30,15 C30,23.2842712 23.2842712,30 15,30 Z M15,27.1428571 C21.7063148,27.1428571 27.1428571,21.7063148 27.1428571,15 C27.1428571,8.29368518 21.7063148,2.85714286 15,2.85714286 C8.29368518,2.85714286 2.85714286,8.29368518 2.85714286,15 C2.85714286,21.7063148 8.29368518,27.1428571 15,27.1428571 Z" id="Outer"></path>
                        <circle id="Inner" cx="15" cy="15" r="7.5"></circle>
                    </g>
                    <circle id="EmptyBullet" fill="#D2D2D2" cx="15" cy="15" r="15"></circle>
                </g>
            </g>
        </g>
    </g>
</svg>