<svg xmlns="http://www.w3.org/2000/svg" viewBox="-4.95219e-14 1.3068 13.94 11.33">
  <path d="M 2.178 10.0188 H 0.4356 a 0.4356 0.4356 90 0 0 -0.4356 0.4356 v 1.7424 a 0.4356 0.4356 90 0 0 0.4356 0.4356 h 1.7424 a 0.4356 0.4356 90 0 0 0.4356 -0.4356 v -1.7424 a 0.4356 0.4356 90 0 0 -0.4356 -0.4356 z m 0 -8.712 H 0.4356 A 0.4356 0.4356 90 0 0 0 1.7424 v 1.7424 a 0.4356 0.4356 90 0 0 0.4356 0.4356 h 1.7424 a 0.4356 0.4356 90 0 0 0.4356 -0.4356 V 1.7424 a 0.4356 0.4356 90 0 0 -0.4356 -0.4356 z m 0 4.356 H 0.4356 a 0.4356 0.4356 90 0 0 -0.4356 0.4356 v 1.7424 a 0.4356 0.4356 90 0 0 0.4356 0.4356 h 1.7424 a 0.4356 0.4356 90 0 0 0.4356 -0.4356 v -1.7424 a 0.4356 0.4356 90 0 0 -0.4356 -0.4356 z m 11.3256 4.7916 H 4.7916 a 0.4356 0.4356 90 0 0 -0.4356 0.4356 v 0.8712 a 0.4356 0.4356 90 0 0 0.4356 0.4356 h 8.712 a 0.4356 0.4356 90 0 0 0.4356 -0.4356 v -0.8712 a 0.4356 0.4356 90 0 0 -0.4356 -0.4356 z m 0 -8.712 H 4.7916 a 0.4356 0.4356 90 0 0 -0.4356 0.4356 v 0.8712 a 0.4356 0.4356 90 0 0 0.4356 0.4356 h 8.712 a 0.4356 0.4356 90 0 0 0.4356 -0.4356 V 2.178 a 0.4356 0.4356 90 0 0 -0.4356 -0.4356 z m 0 4.356 H 4.7916 a 0.4356 0.4356 90 0 0 -0.4356 0.4356 v 0.8712 a 0.4356 0.4356 90 0 0 0.4356 0.4356 h 8.712 a 0.4356 0.4356 90 0 0 0.4356 -0.4356 v -0.8712 a 0.4356 0.4356 90 0 0 -0.4356 -0.4356 z" fill="#FFF"/>
</svg>