<?xml version="1.0" encoding="UTF-8" standalone="no"?>
<!-- Generator: Adobe Illustrator 16.0.0, SVG Export Plug-In . SVG Version: 6.00 Build 0)  -->

<svg
   xmlns:dc="http://purl.org/dc/elements/1.1/"
   xmlns:cc="http://creativecommons.org/ns#"
   xmlns:rdf="http://www.w3.org/1999/02/22-rdf-syntax-ns#"
   xmlns:svg="http://www.w3.org/2000/svg"
   xmlns="http://www.w3.org/2000/svg"
   xmlns:xlink="http://www.w3.org/1999/xlink"
   xmlns:sodipodi="http://sodipodi.sourceforge.net/DTD/sodipodi-0.dtd"
   xmlns:inkscape="http://www.inkscape.org/namespaces/inkscape"
   version="1.1"
   id="Layer_1"
   x="0px"
   y="0px"
   width="284.7355"
   height="68"
   viewBox="0 0 284.7355 68.000001"
   enable-background="new 0 0 255.12 141.73"
   xml:space="preserve"
   inkscape:version="0.91 r13725"
   sodipodi:docname="inmanta-logo-horizontal.svg"><metadata
     id="metadata27"><rdf:RDF><cc:Work
         rdf:about=""><dc:format>image/svg+xml</dc:format><dc:type
           rdf:resource="http://purl.org/dc/dcmitype/StillImage" /><dc:title></dc:title></cc:Work></rdf:RDF></metadata><defs
     id="defs25"><defs
       id="defs5"><rect
         height="30.989"
         width="176.457"
         y="55.742001"
         x="40"
         id="SVGID_1_" /></defs><clipPath
       id="SVGID_2_"><use
         height="100%"
         width="100%"
         y="0"
         x="0"
         style="overflow:visible"
         id="use9"
         overflow="visible"
         xlink:href="#SVGID_1_" /></clipPath></defs><sodipodi:namedview
     pagecolor="#ffffff"
     bordercolor="#666666"
     borderopacity="1"
     objecttolerance="10"
     gridtolerance="10"
     guidetolerance="10"
     inkscape:pageopacity="0"
     inkscape:pageshadow="2"
     inkscape:window-width="2560"
     inkscape:window-height="1376"
     id="namedview23"
     showgrid="false"
     showguides="true"
     inkscape:guide-bbox="true"
     inkscape:zoom="3.4368627"
     inkscape:cx="133.93322"
     inkscape:cy="7.6065961"
     inkscape:window-x="1920"
     inkscape:window-y="27"
     inkscape:window-maximized="1"
     inkscape:current-layer="Layer_1"
     fit-margin-top="0"
     fit-margin-left="0"
     fit-margin-right="0"
     fit-margin-bottom="0" /><g
     id="g4263"
     transform="matrix(1.8518518,0,0,1.8518518,-0.22483831,9.0000016)"><path
       style="fill:#ffffff;fill-opacity:1;stroke:none;stroke-opacity:1"
       transform="matrix(0.87135774,0,0,0.87135774,-34.732895,-48.572095)"
       clip-path="url(#SVGID_2_)"
       d="m 100.078,68.137 -2.593,0 0,15.72 2.593,0 0,-15.72 z m 17.525,15.72 2.56,0 0,-9.221 c 0,-2.123 -0.52,-3.796 -1.559,-5.022 -1.039,-1.226 -2.489,-1.839 -4.348,-1.839 -2.495,0 -4.256,1.139 -5.284,3.413 l -0.296,-3.019 -2.231,0 0,15.687 2.592,0 0,-7.713 c 0.044,-1.902 0.471,-3.391 1.28,-4.462 0.81,-1.072 1.871,-1.607 3.184,-1.607 1.313,0 2.324,0.383 3.036,1.147 0.711,0.766 1.066,1.905 1.066,3.415 l 0,9.221 z m 30.031,0 2.56,0 0,-9.221 c 0,-2.123 -0.515,-3.796 -1.543,-5.022 -1.027,-1.226 -2.482,-1.839 -4.365,-1.839 -2.67,0 -4.496,1.26 -5.48,3.774 -0.416,-1.181 -1.083,-2.105 -2.002,-2.773 -0.919,-0.667 -2.057,-1.001 -3.413,-1.001 -2.494,0 -4.256,1.139 -5.284,3.413 l -0.296,-3.019 -2.231,0 0,15.687 2.592,0 0,-7.713 c 0.044,-1.902 0.471,-3.391 1.28,-4.462 0.81,-1.072 1.871,-1.607 3.184,-1.607 1.313,0 2.324,0.383 3.036,1.147 0.711,0.766 1.067,1.905 1.067,3.415 l 0,9.221 2.559,0 0,-7.613 c 0,-1.926 0.367,-3.436 1.1,-4.529 0.733,-1.094 1.768,-1.641 3.102,-1.641 1.334,0 2.357,0.383 3.068,1.147 0.711,0.766 1.067,1.905 1.067,3.415 l 0,9.221 z m 17.723,-6.529 c 0,1.443 -0.455,2.619 -1.363,3.527 -0.908,0.908 -1.996,1.361 -3.266,1.361 -2.232,0 -3.348,-0.984 -3.348,-2.953 0,-0.896 0.361,-1.553 1.083,-1.969 0.722,-0.416 1.663,-0.625 2.823,-0.625 1.159,0.001 2.517,0.22 4.071,0.659 m 0.328,6.529 2.231,0 0,-10.107 c 0,-2.013 -0.547,-3.512 -1.641,-4.497 -1.095,-0.985 -2.615,-1.478 -4.562,-1.478 -0.919,0 -1.772,0.089 -2.56,0.264 -2.582,0.568 -3.873,2.057 -3.873,4.462 l 2.854,0 c 0,-0.961 0.345,-1.667 1.034,-2.117 0.689,-0.448 1.597,-0.672 2.724,-0.672 1.127,0 1.986,0.306 2.576,0.918 0.591,0.613 0.888,1.63 0.888,3.052 l 0,2.002 c -1.533,-0.568 -3.141,-0.854 -4.826,-0.854 -1.685,0 -3.09,0.395 -4.217,1.182 -1.128,0.789 -1.691,1.883 -1.691,3.283 0,1.4 0.51,2.57 1.527,3.512 1.017,0.942 2.368,1.41 4.053,1.41 2.517,0 4.256,-0.994 5.219,-2.986 l 0.264,2.626 z m 18.805,0 2.561,0 0,-9.221 c 0,-2.123 -0.521,-3.796 -1.56,-5.022 -1.039,-1.226 -2.489,-1.839 -4.349,-1.839 -2.494,0 -4.256,1.139 -5.284,3.413 l -0.295,-3.019 -2.231,0 0,15.687 2.593,0 0,-7.713 c 0.043,-1.902 0.47,-3.391 1.28,-4.462 0.809,-1.072 1.869,-1.607 3.183,-1.607 1.314,0 2.325,0.383 3.036,1.147 0.711,0.766 1.066,1.905 1.066,3.415 l 0,9.221 z m 16.214,-0.459 -0.361,-1.838 c -1.007,0.395 -1.915,0.59 -2.724,0.59 -1.489,0 -2.232,-0.797 -2.232,-2.395 l 0,-9.617 4.923,0 0,-1.968 -4.923,0 0,-4.365 -2.56,0 0,4.365 -2.527,0 0,1.969 2.527,0 0,9.65 c 0,0.766 0.119,1.422 0.36,1.969 0.459,1.115 1.247,1.85 2.363,2.199 1.554,0.504 3.271,0.316 5.154,-0.559 m 13.192,-6.07 c 0,1.443 -0.454,2.619 -1.361,3.527 -0.908,0.908 -1.997,1.361 -3.267,1.361 -2.23,0 -3.347,-0.984 -3.347,-2.953 0,-0.896 0.36,-1.553 1.083,-1.969 0.722,-0.416 1.662,-0.625 2.822,-0.625 1.16,0.001 2.517,0.22 4.07,0.659 m 2.561,6.529 0,-10.107 c 0,-2.013 -0.547,-3.512 -1.642,-4.497 -1.094,-0.985 -2.614,-1.478 -4.562,-1.478 -0.919,0 -1.772,0.089 -2.561,0.264 -2.582,0.568 -3.873,2.057 -3.873,4.462 l 2.856,0 c 0,-0.961 0.344,-1.667 1.033,-2.117 0.689,-0.448 1.597,-0.672 2.724,-0.672 1.127,0 1.986,0.306 2.577,0.918 0.591,0.613 0.886,1.63 0.886,3.052 l 0,2.002 c -1.532,-0.568 -3.14,-0.854 -4.825,-0.854 -1.685,0 -3.09,0.395 -4.217,1.182 -1.127,0.789 -1.689,1.883 -1.689,3.283 0,1.4 0.509,2.57 1.525,3.512 1.018,0.941 2.368,1.41 4.054,1.41 2.516,0 4.256,-0.994 5.219,-2.986 l 0.262,2.625 2.233,0 z"
       id="path11"
       inkscape:connector-curvature="0" /><path
       transform="matrix(0.87135774,0,0,0.87135774,-34.732895,-48.572095)"
       clip-path="url(#SVGID_2_)"
       d="m 74.652,55.743 c 0,0 -3.876,10.625 -7.359,15.145 -3.482,4.52 -14.876,12.092 -14.876,12.092 0,0 15.055,2.477 21.679,2.066 6.625,-0.412 15.188,-2.912 15.188,-2.912 0,0 -5.181,-12.802 -7.668,-17.137 -2.487,-4.334 -6.964,-9.254 -6.964,-9.254"
       id="path13"
       inkscape:connector-curvature="0"
       style="fill:#009aa5" /><path
       transform="matrix(0.87135774,0,0,0.87135774,-34.732895,-48.572095)"
       clip-path="url(#SVGID_2_)"
       d="m 55.618,64.153 c 0,0 19.663,13.708 25.125,15.423 5.461,1.713 8.568,2.537 8.568,2.537 0,0 -10.035,3.83 -21.415,2.885 -11.38,-0.943 -15.68,-1.916 -15.68,-1.916 0,0 2.883,-2.697 3.38,-5.691 0.497,-2.994 0.022,-13.238 0.022,-13.238"
       id="path15"
       inkscape:connector-curvature="0"
       style="fill:#40a3ad" /><path
       transform="matrix(0.87135774,0,0,0.87135774,-34.732895,-48.572095)"
       clip-path="url(#SVGID_2_)"
       d="m 52.356,83.07 c 0,0 -9.278,2.586 -11.652,3.467 -2.374,0.883 1.708,-1.498 5.501,-2.672 3.793,-1.176 8.541,-2.475 8.541,-2.475 l -2.39,1.68 z"
       id="path17"
       inkscape:connector-curvature="0"
       style="fill:#009aa5" /><path
       transform="matrix(0.87135774,0,0,0.87135774,-34.732895,-48.572095)"
       clip-path="url(#SVGID_2_)"
       d="m 66.695,71.589 c -5.844,-3.795 -11.113,-7.477 -11.113,-7.477 0,0 0.478,10.29 -0.019,13.297 -0.497,3.01 -3.386,5.719 -3.386,5.719 0,0 10.494,-6.96 14.518,-11.539"
       id="path19"
       inkscape:connector-curvature="0"
       style="fill:#a6cbd1" /><path
       transform="matrix(0.87135774,0,0,0.87135774,-34.732895,-48.572095)"
       clip-path="url(#SVGID_2_)"
       d="m 54.669,81.424 c -0.147,0.039 -0.617,0.17 -1.29,0.357 -0.637,0.803 -1.169,1.309 -1.217,1.355 0.002,-0.002 0.006,-0.002 0.008,-0.004 0.115,-0.075 1.083,-0.718 2.499,-1.708"
       id="path21"
       inkscape:connector-curvature="0"
       style="fill:#65aeb8" /></g></svg>