<svg xmlns="http://www.w3.org/2000/svg" version="1.1" xmlns:xlink="http://www.w3.org/1999/xlink" xmlns:svgjs="http://svgjs.com/svgjs" width="512" height="512" x="0" y="0" viewBox="0 0 24 24" style="enable-background:new 0 0 512 512" xml:space="preserve" class=""><g><path d="M4.71 20.71 9 16.42v3.59c0 .55.45 1 1 1s1-.45 1-1v-5a2 2 0 0 0-2-2H4c-.55 0-1 .45-1 1s.45 1 1 1h3.59L3.3 19.3a.996.996 0 1 0 1.41 1.41zM20 9h-3.59l4.29-4.29a.996.996 0 1 0-1.41-1.41L15 7.59V4c0-.55-.45-1-1-1s-1 .45-1 1v5a2 2 0 0 0 2 2h5c.55 0 1-.45 1-1s-.45-1-1-1z" fill="#717A86" data-original="#000000" opacity="1" class=""></path></g></svg>
