<svg xmlns="http://www.w3.org/2000/svg" version="1.1" xmlns:xlink="http://www.w3.org/1999/xlink" xmlns:svgjs="http://svgjs.com/svgjs" width="512" height="512" x="0" y="0" viewBox="0 0 512 512" style="enable-background:new 0 0 512 512" xml:space="preserve" class=""><g><g data-name="ARROW 48"><path d="M512 488.06V23.94a24 24 0 0 0-48 0v464.12a24 24 0 1 0 48 0zM48 488.06V23.94a24 24 0 0 0-48 0v464.12a24 24 0 0 0 48 0zM163.36 280l27.36 27.36c9.52 9.51 9.75 25.32.05 34.65a24 24 0 0 1-33.61-.33l-68.29-68.25a24.67 24.67 0 0 1 0-34.9l68.29-68.24a24 24 0 0 1 33.94 0 24 24 0 0 1 0 34L163.36 232H348l-27.36-27.36c-9.52-9.51-9.75-25.31-.05-34.65a24 24 0 0 1 33.61.33l68.28 68.24a24.66 24.66 0 0 1 0 34.89L354.2 341.7a24 24 0 0 1-33.94 0 24 24 0 0 1 0-34L348 280z" fill="#717A86" data-original="#000000" class="" opacity="1"></path></g></g></svg>
