<svg xmlns="http://www.w3.org/2000/svg" version="1.1" xmlns:xlink="http://www.w3.org/1999/xlink" xmlns:svgjs="http://svgjs.com/svgjs" width="512" height="512" x="0" y="0" viewBox="0 0 24 24" style="enable-background:new 0 0 512 512" xml:space="preserve" class=""><g><path d="M5 21h5c.55 0 1-.45 1-1s-.45-1-1-1H6.41l4.29-4.29a.996.996 0 1 0-1.41-1.41L5 17.59V14c0-.55-.45-1-1-1s-1 .45-1 1v5a2 2 0 0 0 2 2zM19 3h-5c-.55 0-1 .45-1 1s.45 1 1 1h3.59L13.3 9.29a.996.996 0 1 0 1.41 1.41L19 6.41V10c0 .55.45 1 1 1s1-.45 1-1V5a2 2 0 0 0-2-2z" fill="#717A86" data-original="#000000" class="" opacity="1"></path></g></svg>
