<svg xmlns="http://www.w3.org/2000/svg" viewBox="0.24 0.2376 14.88 14.73">
  <path d="M 7.68 0.2376 C 3.5713 0.2376 0.24 3.5368 0.24 7.6032 c 0 4.0688 3.3313 7.3656 7.44 7.3656 s 7.44 -3.2968 7.44 -7.3656 C 15.12 3.5368 11.7887 0.2376 7.68 0.2376 z m 0 13.3056 c -3.316 0 -6 -2.6561 -6 -5.94 c 0 -3.2817 2.6842 -5.94 6 -5.94 c 3.3147 0 6 2.6573 6 5.94 c 0 3.2827 -2.6829 5.94 -6 5.94 z m 3.2173 -7.5794 c 0 1.9914 -2.1726 2.0221 -2.1726 2.758 V 8.91 c 0 0.1968 -0.1612 0.3564 -0.36 0.3564 h -1.3694 c -0.1988 0 -0.36 -0.1596 -0.36 -0.3564 v -0.2572 c 0 -1.0616 0.813 -1.486 1.4274 -1.827 c 0.5268 -0.2924 0.8497 -0.4913 0.8497 -0.8785 c 0 -0.5122 -0.66 -0.8522 -1.1935 -0.8522 c -0.6957 0 -1.0168 0.326 -1.4683 0.8901 c -0.1217 0.1521 -0.3438 0.1803 -0.5 0.0631 l -0.8347 -0.6266 c -0.1532 -0.115 -0.1875 -0.3287 -0.0793 -0.486 C 5.5454 3.9053 6.4482 3.3264 7.8538 3.3264 c 1.4721 0 3.0435 1.1376 3.0435 2.6374 z M 8.94 10.9296 c 0 0.6878 -0.5652 1.2474 -1.26 1.2474 s -1.26 -0.5596 -1.26 -1.2474 s 0.5652 -1.2474 1.26 -1.2474 s 1.26 0.5596 1.26 1.2474 z" fill="#FFF"/>
</svg>